<?xml version="1.0" encoding="utf-8"?>
<!-- Generator: Adobe Illustrator 24.2.0, SVG Export Plug-In . SVG Version: 6.00 Build 0)  -->
<svg version="1.2" baseProfile="tiny" id="Layer_1" xmlns="http://www.w3.org/2000/svg" xmlns:xlink="http://www.w3.org/1999/xlink"
	 x="0px" y="0px" width="151.7px" height="58.4px" viewBox="0 0 151.7 58.4" overflow="visible" xml:space="preserve">
<g id="Layer_2_1_">
	<g id="Layer_1-2">
		<path fill="#006A71" d="M148.6,17.1c3.8-4,3.7-10.4-0.3-14.3S137.9-0.8,134,3.2s-3.7,10.4,0.3,14.3c1.9,1.8,4.4,2.8,7,2.8
			c1,0,2-0.2,3-0.5c5.7,11.6,0.9,25.5-10.6,31.2c-10.1,5-22.3,2-29-7l-0.8-1H47.8L47,44c-7.7,10.3-22.3,12.5-32.6,4.8
			c-9-6.7-12-18.9-7-29c1,0.3,2,0.5,3,0.5c5.6,0,10.1-4.5,10.2-10.1S16.1,0,10.5,0S0.3,4.5,0.3,10.1c0,2.6,1,5.2,2.8,7
			C-4,31,1.5,48.1,15.4,55.2c11.9,6.1,26.4,3.1,34.9-7.3h51.2c4.5,5.5,10.8,9.1,17.8,10.1c1.4,0.2,2.8,0.3,4.2,0.3
			c15.6,0,28.3-12.7,28.3-28.4C151.7,25.5,150.6,21.1,148.6,17.1L148.6,17.1z"/>
	</g>
</g>
</svg>
