<?xml version="1.0" encoding="utf-8"?>
<!-- Generator: Adobe Illustrator 24.2.0, SVG Export Plug-In . SVG Version: 6.00 Build 0)  -->
<svg version="1.2" baseProfile="tiny" id="Layer_1" xmlns="http://www.w3.org/2000/svg" xmlns:xlink="http://www.w3.org/1999/xlink"
	 x="0px" y="0px" width="168.2px" height="80.6px" viewBox="0 0 168.2 80.6" overflow="visible" xml:space="preserve">
<g id="Layer_2_1_">
	<g id="Layer_1-2">
		<path fill="#006A71" d="M168.2,9.9c0-5.5-4.4-10-9.9-10.1c-5.5,0-10,4.4-10.1,9.9c0,5.5,4.4,10,9.9,10.1c0.9,0,1.8-0.1,2.7-0.4
			c6,13.9-0.4,30-14.3,36c-5.7,2.5-12.1,2.9-18.1,1.3l-86-37.4l-0.6-0.2C24.6,14.1,6.6,23.9,1.5,41C-0.7,48.5-0.2,56.5,3,63.6
			c-3.9,3.8-4,10.1-0.1,14c3.8,3.9,10.1,4,14,0.1s4-10.1,0.1-14c-1.9-1.9-4.4-3-7.1-3c-0.9,0-1.7,0.1-2.6,0.3
			C1.4,47.1,7.8,31,21.8,25c5.9-2.5,12.4-2.9,18.5-1.1l0.2,0.1l84.1,36.6l-0.1,0.3l2.3,0.7c17.2,4.9,35.1-5.1,40-22.3
			c2.1-7.4,1.5-15.3-1.7-22.3C167.1,15.1,168.2,12.6,168.2,9.9z"/>
	</g>
</g>
</svg>
