<?xml version="1.0" encoding="utf-8"?>
<!-- Generator: Adobe Illustrator 24.2.0, SVG Export Plug-In . SVG Version: 6.00 Build 0)  -->
<svg version="1.2" baseProfile="tiny" id="Layer_1" xmlns="http://www.w3.org/2000/svg" xmlns:xlink="http://www.w3.org/1999/xlink"
	 x="0px" y="0px" width="162.5px" height="62.8px" viewBox="0 0 162.5 62.8" overflow="visible" xml:space="preserve">
<g id="Layer_2_1_">
	<g id="Layer_1-2">
		<path fill="#006A71" d="M159.6,45.7c7.4-16.3,0.1-35.5-16.2-42.9c-4.3-1.9-9-2.9-13.7-2.9H29.1v0.2C11.4,2-1.6,18,0.3,35.8
			c0.4,3.4,1.3,6.8,2.7,9.9c-3.9,3.8-4,10.1-0.2,14s10.1,4,14,0.2s4-10.1,0.2-14c-1.9-1.9-4.4-3-7.1-3c-0.9,0-1.7,0.1-2.6,0.3
			c-6-13.9,0.5-30.1,14.4-36c3.2-1.4,6.6-2.1,10.1-2.2h98.7c15.1,0.3,27.2,12.8,26.9,27.9c-0.1,3.6-0.8,7.1-2.2,10.3
			c-0.8-0.2-1.7-0.3-2.6-0.3c-5.5,0-10,4.4-10.1,9.9s4.4,10,9.9,10.1c5.5,0,10-4.4,10.1-9.9C162.6,50.2,161.5,47.6,159.6,45.7z"/>
	</g>
</g>
</svg>
