<?xml version="1.0" encoding="utf-8"?>
<!-- Generator: Adobe Illustrator 24.2.0, SVG Export Plug-In . SVG Version: 6.00 Build 0)  -->
<svg version="1.2" baseProfile="tiny" id="Layer_1" xmlns="http://www.w3.org/2000/svg" xmlns:xlink="http://www.w3.org/1999/xlink"
	 x="0px" y="0px" width="140.2px" height="73.7px" viewBox="0 0 140.2 73.7" overflow="visible" xml:space="preserve">
<g id="Layer_2_1_">
	<g id="Layer_1-2">
		<path fill="#006A71" d="M130.2,53.5c-1.8,0-3.6,0.5-5.2,1.4L70.1,0L15.2,54.9c-4.8-2.8-11-1.2-13.8,3.5S0.2,69.4,5,72.3
			s11,1.2,13.8-3.5c0.9-1.6,1.4-3.3,1.4-5.1c0-1.8-0.5-3.6-1.4-5.1L70.1,7.1l51.4,51.4c-2.8,4.8-1.2,11,3.6,13.8s11,1.2,13.8-3.6
			s1.2-11-3.6-13.8C133.7,53.9,132,53.4,130.2,53.5L130.2,53.5z"/>
	</g>
</g>
</svg>
