<?xml version="1.0" encoding="utf-8"?>
<!-- Generator: Adobe Illustrator 24.2.0, SVG Export Plug-In . SVG Version: 6.00 Build 0)  -->
<svg version="1.2" baseProfile="tiny" id="Layer_1" xmlns="http://www.w3.org/2000/svg" xmlns:xlink="http://www.w3.org/1999/xlink"
	 x="0px" y="0px" width="54.6px" height="82.2px" viewBox="0 0 54.6 82.2" overflow="visible" xml:space="preserve">
<g id="Layer_2_1_">
	<g id="Layer_1-2">
		<path fill="#FF7E67" d="M27.3,27.6c-0.3,0-0.6,0-0.9,0c5.5,4.8,6.1,13.1,1.3,18.6s-13.1,6.1-18.6,1.3c-2.4-2.1-3.9-4.9-4.4-8
			c-8.5,12.4-5.3,29.4,7.1,37.9s29.4,5.3,37.9-7.1s5.3-29.4-7.1-37.9C38.2,29.2,32.8,27.6,27.3,27.6z"/>
		<path fill="#FF7E67" d="M10.1,12.9h0.3c-2,1.8-2.3,4.8-0.5,6.9s4.8,2.3,6.9,0.5c0.9-0.8,1.5-1.8,1.6-3c3.2,4.6,2,10.9-2.6,14
			c-1.7,1.2-3.7,1.8-5.7,1.8C4.5,33.1,0,28.6,0,23S4.5,12.9,10.1,12.9L10.1,12.9z"/>
		<path fill="#FF7E67" d="M23.9,0h-0.2C24.8,1,25,2.8,24,4s-2.8,1.3-4,0.3c-0.5-0.4-0.8-1-0.9-1.7c-1.8,2.7-1.1,6.3,1.5,8.1
			s6.3,1.1,8.1-1.5c1.8-2.7,1.1-6.3-1.5-8.1C26.2,0.4,25,0,23.9,0z"/>
	</g>
</g>
</svg>
