<?xml version="1.0" encoding="utf-8"?>
<!-- Generator: Adobe Illustrator 24.2.0, SVG Export Plug-In . SVG Version: 6.00 Build 0)  -->
<svg version="1.2" baseProfile="tiny" id="Layer_1" xmlns="http://www.w3.org/2000/svg" xmlns:xlink="http://www.w3.org/1999/xlink"
	 x="0px" y="0px" width="41.4px" height="19.7px" viewBox="0 0 41.4 19.7" overflow="visible" xml:space="preserve">
<g id="Layer_2_1_">
	<g id="Layer_1-2">
		<path fill="#006A71" d="M31.1,7.2c0.1-2.9,2.5-5.1,5.4-4.9c2.7,0.1,4.8,2.3,4.9,4.9"/>
		<path fill="#006A71" d="M10.3,7.4c0-2.9-2.3-5.2-5.2-5.2C2.3,2.2,0,4.5,0,7.4"/>
		<polygon fill="#006A71" points="20.7,0 15.3,9.4 26.2,9.4 		"/>
		<path fill="#006A71" d="M13.4,16.1h0.1H13.4z"/>
		<path fill="#006A71" d="M24.7,12.1L24.7,12.1c-0.4-0.5-1.1-0.7-1.7-0.7c-0.8,0-1.6,0.4-2,1.2c-0.4-0.7-1.2-1.2-2-1.2
			c-0.6,0-1.3,0.3-1.7,0.7l0,0l-1.6,1.6c-0.5,0.5-0.5,1.4,0,2c0.3,0.3,0.6,0.4,1,0.4h1c-0.4,0.2-0.5,0.7-0.4,1.1
			c0.7,2,2.9,3,4.9,2.3c1.1-0.4,1.9-1.2,2.3-2.3c0.1-0.4,0-0.9-0.4-1.1h1c0.8,0,1.4-0.6,1.4-1.4c0-0.4-0.1-0.7-0.4-1L24.7,12.1z
			 M19.9,15.9c0.5-0.2,0.9-0.6,1.2-1c0.3,0.4,0.7,0.8,1.1,1H19.9z"/>
		<polygon fill="#006A71" points="29.4,16.1 29.4,16.1 29.5,16.1 		"/>
	</g>
</g>
</svg>
