<?xml version="1.0" encoding="utf-8"?>
<!-- Generator: Adobe Illustrator 24.2.0, SVG Export Plug-In . SVG Version: 6.00 Build 0)  -->
<svg version="1.2" baseProfile="tiny" id="Layer_1" xmlns="http://www.w3.org/2000/svg" xmlns:xlink="http://www.w3.org/1999/xlink"
	 x="0px" y="0px" width="41.4px" height="24px" viewBox="0 0 41.4 24" overflow="visible" xml:space="preserve">
<g id="Layer_2_1_">
	<g id="Layer_1-2">
		<path fill="#006A71" d="M27.5,12.2c-1.4,0-2.5,1.1-2.5,2.5c0,2.4-1.9,4.3-4.3,4.3s-4.3-1.9-4.3-4.3c0-1.4-1.1-2.5-2.5-2.5
			s-2.5,1.1-2.5,2.5c0,5.1,4.2,9.3,9.3,9.3s9.3-4.2,9.3-9.3l0,0C30,13.3,28.9,12.2,27.5,12.2L27.5,12.2z"/>
		<polygon fill="#006A71" points="20.7,0.8 15.3,10.2 26.2,10.2 		"/>
		<polygon fill="#006A71" points="6.7,0 3.7,0 3.7,3.7 0,3.7 0,6.7 3.7,6.7 3.7,10.3 6.7,10.3 6.7,6.7 10.3,6.7 10.3,3.7 6.7,3.7 		
			"/>
		<polygon fill="#006A71" points="41.4,3.7 37.8,3.7 37.8,0 34.8,0 34.8,3.7 31.1,3.7 31.1,6.7 34.8,6.7 34.8,10.3 37.8,10.3 
			37.8,6.7 41.4,6.7 		"/>
	</g>
</g>
</svg>
