<?xml version="1.0" encoding="utf-8"?>
<!-- Generator: Adobe Illustrator 24.2.0, SVG Export Plug-In . SVG Version: 6.00 Build 0)  -->
<svg version="1.2" baseProfile="tiny" id="Layer_1" xmlns="http://www.w3.org/2000/svg" xmlns:xlink="http://www.w3.org/1999/xlink"
	 x="0px" y="0px" width="41.4px" height="21.2px" viewBox="0 0 41.4 21.2" overflow="visible" xml:space="preserve">
<g id="Layer_2_1_">
	<g id="Layer_1-2">
		<rect x="6.3" y="0" transform="matrix(0.7071 -0.7071 0.7071 0.7071 -0.2793 6.5962)" fill="#006A71" width="3" height="7.3"/>
		<rect x="30" y="2.1" transform="matrix(0.7071 -0.7071 0.7071 0.7071 7.3115 24.8264)" fill="#006A71" width="7.3" height="3"/>
		<path fill="#006A71" d="M29,21.2h-3c0-2.9-2.4-5.3-5.3-5.3s-5.3,2.4-5.3,5.3h-3c0-4.6,3.7-8.3,8.3-8.3S29,16.7,29,21.2z"/>
		<path fill="#006A71" d="M41.4,6.4c0.1,2.9-2.1,5.3-4.9,5.4s-5.3-2.1-5.4-4.9c0-0.2,0-0.3,0-0.5"/>
		<path fill="#006A71" d="M0,6.4c0,2.9,2.3,5.2,5.2,5.2s5.2-2.3,5.2-5.2l0,0"/>
		<polygon fill="#006A71" points="20.7,2 15.3,11.4 26.2,11.4 		"/>
	</g>
</g>
</svg>
