<?xml version="1.0" encoding="utf-8"?>
<!-- Generator: Adobe Illustrator 24.2.0, SVG Export Plug-In . SVG Version: 6.00 Build 0)  -->
<svg version="1.2" baseProfile="tiny" id="Layer_1" xmlns="http://www.w3.org/2000/svg" xmlns:xlink="http://www.w3.org/1999/xlink"
	 x="0px" y="0px" width="105.7px" height="101.7px" viewBox="0 0 105.7 101.7" overflow="visible" xml:space="preserve">
<g id="Layer_2_1_">
	<g id="Layer_1-2">
		<path fill="#68B0AB" d="M63.6,6.7l7,14.3c1.7,3.5,5.1,6,9,6.6l15.7,2.3c6.6,0.9,11.1,7,10.2,13.6c-0.4,2.6-1.6,5-3.5,6.9
			L90.6,61.3c-2.8,2.8-4.1,6.8-3.4,10.7l2.7,15.7c1.1,6.5-3.3,12.7-9.8,13.8c-2.6,0.4-5.3,0-7.6-1.2l-14.1-7.4
			c-3.5-1.8-7.7-1.8-11.2,0l-14.1,7.4c-5.9,3.1-13.1,0.8-16.2-5.1c-1.2-2.3-1.6-5-1.2-7.6L18.5,72c0.7-3.9-0.6-7.9-3.5-10.7
			L3.6,50.2c-4.7-4.6-4.8-12.2-0.2-17c1.8-1.9,4.2-3.1,6.8-3.5L26,27.5c3.9-0.6,7.3-3,9-6.6l7-14.3c2.9-6,10.1-8.4,16-5.5
			C60.5,2.3,62.4,4.3,63.6,6.7z"/>
	</g>
</g>
</svg>
