<?xml version="1.0" encoding="utf-8"?>
<!-- Generator: Adobe Illustrator 24.2.0, SVG Export Plug-In . SVG Version: 6.00 Build 0)  -->
<svg version="1.2" baseProfile="tiny" id="Layer_1" xmlns="http://www.w3.org/2000/svg" xmlns:xlink="http://www.w3.org/1999/xlink"
	 x="0px" y="0px" width="98.6px" height="150.9px" viewBox="0 0 98.6 150.9" overflow="visible" xml:space="preserve">
<g id="Layer_2_1_">
	<g id="Layer_1-2">
		<path fill="#FF7E67" d="M84.5,4.5c-6.7,6.9-15.3,11.6-24.7,13.7c-2.6,0.6-5.1-1.1-5.7-3.6c-0.1-0.3-0.1-0.7-0.1-1V4.8
			C54,2.2,51.9,0,49.2,0l0,0c-2.6,0-4.8,2.1-4.8,4.8v8.8c0,2.6-2.1,4.8-4.8,4.8c-0.3,0-0.7,0-1-0.1c-9.4-2.1-18-6.8-24.7-13.7
			c-1.8-1.9-4.8-1.9-6.7-0.1C7,4.7,6.8,5,6.6,5.4c-8.7,15.2-8.7,33.9,0,49.1c1.3,2.3,4.2,3,6.5,1.7c0.4-0.2,0.7-0.5,1-0.8
			c6.7-6.9,15.3-11.6,24.7-13.7c2.6-0.6,5.1,1.1,5.7,3.6c0.1,0.3,0.1,0.7,0.1,1v99.8c0,2.6,2.1,4.8,4.8,4.8l0,0
			c2.6,0,4.8-2.1,4.8-4.8V46.4c0-2.6,2.1-4.8,4.8-4.8c0.3,0,0.7,0,1,0.1c9.4,2.1,18,6.8,24.7,13.7c1.8,1.9,4.8,1.9,6.7,0.1
			c0.3-0.3,0.6-0.6,0.8-1c8.7-15.2,8.7-33.9,0-49.1c-1.3-2.3-4.2-3-6.5-1.7C85.2,3.9,84.8,4.2,84.5,4.5z"/>
	</g>
</g>
</svg>
