<?xml version="1.0" encoding="utf-8"?>
<!-- Generator: Adobe Illustrator 24.2.0, SVG Export Plug-In . SVG Version: 6.00 Build 0)  -->
<svg version="1.2" baseProfile="tiny" id="Layer_1" xmlns="http://www.w3.org/2000/svg" xmlns:xlink="http://www.w3.org/1999/xlink"
	 x="0px" y="0px" width="134.6px" height="123.2px" viewBox="0 0 134.6 123.2" overflow="visible" xml:space="preserve">
<g id="Layer_2_1_">
	<g id="Layer_1-2">
		<path fill="#FF7E67" d="M131.2,85.5L89.1,12.6c-6.9-12-22.3-16.2-34.4-9.2c-3.8,2.2-7,5.4-9.2,9.2L3.4,85.5
			c-6.9,12-2.8,27.4,9.2,34.4c3.8,2.2,8.2,3.4,12.6,3.4h84.2c13.9,0,25.2-11.3,25.2-25.2C134.6,93.7,133.4,89.3,131.2,85.5z
			 M66.8,96.2c-19.4,0-35.1-10.1-35.1-22.5c0-0.8,0.1-1.5,0.2-2.3h69.9c0.1,0.8,0.2,1.5,0.2,2.3C101.9,86.1,86.1,96.2,66.8,96.2z"/>
	</g>
</g>
</svg>
