<?xml version="1.0" encoding="utf-8"?>
<!-- Generator: Adobe Illustrator 24.2.0, SVG Export Plug-In . SVG Version: 6.00 Build 0)  -->
<svg version="1.2" baseProfile="tiny" id="Layer_1" xmlns="http://www.w3.org/2000/svg" xmlns:xlink="http://www.w3.org/1999/xlink"
	 x="0px" y="0px" width="90.5px" height="71.8px" viewBox="0 0 90.5 71.8" overflow="visible" xml:space="preserve">
<g id="Layer_2_1_">
	<g id="Layer_1-2">
		<path fill="#006A71" d="M89.8,43.5L47,0.7c-1-1-2.6-1-3.5,0L0.7,43.5c-1,1-1,2.6,0,3.5c0.3,0.3,0.6,0.5,1,0.6L23.5,55l0.1-0.2
			l17,17V48.6c0-3.2-2.6-5.9-5.9-5.9c-1.5,0-3,0.6-4.1,1.7l-5.7,5.7l-17.8-6L45.2,6l38.1,38.2l-17.8,6l-5.7-5.7
			c-2.3-2.3-6-2.3-8.3,0c-1.1,1.1-1.7,2.6-1.7,4.1v23.2l17-17L67,55l21.8-7.4c1.3-0.4,2-1.8,1.6-3.2C90.3,44.1,90.1,43.7,89.8,43.5
			L89.8,43.5z"/>
	</g>
</g>
</svg>
