<?xml version="1.0" encoding="utf-8"?>
<!-- Generator: Adobe Illustrator 24.2.0, SVG Export Plug-In . SVG Version: 6.00 Build 0)  -->
<svg version="1.2" baseProfile="tiny" id="Layer_1" xmlns="http://www.w3.org/2000/svg" xmlns:xlink="http://www.w3.org/1999/xlink"
	 x="0px" y="0px" width="165px" height="86.5px" viewBox="0 0 165 86.5" overflow="visible" xml:space="preserve">
<g id="Layer_2_1_">
	<g id="Layer_1-2">
		<path fill="#006A71" d="M159,44.4l-18.7,7.4c-0.4,0.2-0.9,0.4-1.2,0.7L53.6,0.4C52.4-0.3,51-0.1,50,0.8L1,45.3
			c-0.7,0.6-1.1,1.6-1,2.6s0.7,1.8,1.5,2.3l20.8,11.3c-0.1,0.5-0.1,1,0,1.5l3.2,19.9c0.4,2.4,2.6,4,5,3.6c1.3-0.2,2.5-1,3.2-2.2
			l7.6-14c1.2-2.1,0.4-4.8-1.7-6l0,0l-8.1-4.4l0.1-0.2L8.1,46.9L52.4,6.7l88.1,53.7l0.1-0.2l9.6,5.8c2.1,1.2,4.8,0.5,6-1.5l8.2-13.7
			c1.3-2.1,0.6-4.8-1.4-6C161.8,44,160.3,43.9,159,44.4z"/>
	</g>
</g>
</svg>
