<?xml version="1.0" encoding="utf-8"?>
<!-- Generator: Adobe Illustrator 24.2.0, SVG Export Plug-In . SVG Version: 6.00 Build 0)  -->
<svg version="1.2" baseProfile="tiny" id="Layer_1" xmlns="http://www.w3.org/2000/svg" xmlns:xlink="http://www.w3.org/1999/xlink"
	 x="0px" y="0px" width="125.3px" height="80.4px" viewBox="0 0 125.3 80.4" overflow="visible" xml:space="preserve">
<g id="Layer_2_1_">
	<g id="Layer_1-2">
		<path fill="#006A71" d="M122.9,33.5l-11.3-11.3c-3.2-3.2-8.5-3.2-11.7,0c-2.2,2.2-3,5.5-2,8.4l-22.7,9.9L87.3,3.3
			C87.7,2,87,0.6,85.7,0.1C85.5,0,85.2,0,84.9,0H46.1c-1.1,0-2,0.7-2.4,1.7L22.5,63.8H8.3c-4.6,0.2-8.2,4-8,8.6c0.2,4.4,3.7,7.9,8,8
			h16c4.6,0,8.3-3.7,8.3-8.3c0-3.3-2-6.3-5-7.6L47.8,5h33.6L68.7,44.3c-0.4,1.3,0.3,2.7,1.6,3.1c0.6,0.2,1.2,0.2,1.7-0.1l28.7-12.5
			l10.4,10.4c3.2,3.2,8.5,3.2,11.7,0C126.1,42,126.1,36.8,122.9,33.5L122.9,33.5L122.9,33.5z"/>
	</g>
</g>
</svg>
